<svg xmlns="http://www.w3.org/2000/svg" width="47" height="46" fill="none" viewBox="0 0 47 46">
  <path fill="#618883" fill-rule="evenodd" d="M45.728 14.256a5.836 5.836 0 0 0-7.315-.409 7.295 7.295 0 0 0-2.353 6.537 1.576 1.576 0 0 1-.331.525c-.934-.934-1.109-1.303-1.595-1.595a4.513 4.513 0 0 0-3.463-.253c-.535.188-.98.57-1.245 1.07a5.486 5.486 0 0 0-2.763 2.568c-.875 2.14.487 3.89 1.673 5.641a19.707 19.707 0 0 0 1.946 2.452 17.1 17.1 0 0 0 6.906 3.618 3.657 3.657 0 0 0 3.093-1.42c1.245-1.42 2.84-3.56 2.315-5.292-.895-3.034-3.696-3.151-2.665-1.614.525.567.94 1.227 1.226 1.945a1.402 1.402 0 0 1-1.323 1.596c-1.635.175-6.323-3.347-7.782-6.187a6.068 6.068 0 0 1-1.03-2.179c0-1.186 1.944-1.225 2.645-.895l1.44 1.323c-.643.642-1.499 1.479-.915 1.946a.584.584 0 0 0 .798 0c.291-.798 2.062-1.732 2.548-2.938.486-1.206-.389-2.373 1.323-4.571a3.891 3.891 0 0 1 5.389-.545c1.692 1.79.817 6.128-1.946 6.73-1.05.254-1.945 0-2.918.779a8.697 8.697 0 0 0-1.245 1.459c-.564.759-1.245 1.42-.428 1.77.817.35.895-.194 1.498-.914a6.83 6.83 0 0 1 1.07-1.148c.623-.428 1.479 0 2.704-.37a6.264 6.264 0 0 0 2.743-9.629ZM32.655 27.874c1.44 1.38 4.61 3.657 6.887 3.58-.681.758-1.46 1.458-2.413 1.147a13.345 13.345 0 0 1-7.061-5.525 11.812 11.812 0 0 1-1.732-2.393 2.14 2.14 0 0 1 .487-2.568l.311-.253a12.529 12.529 0 0 0 3.521 6.07v-.058Zm-7.724 13.773a26.77 26.77 0 0 1-6.186 1.575c-2.179.234-3.89.74-5.038.72-.137 0-.292-.136-.35-.097C10.73 38.398 1.761 9.859 1.45 9.334a.584.584 0 0 0-1.07.117c0 .175 4.319 16.282 4.805 17.936a129.566 129.566 0 0 0 6.536 17.372c1.05 1.946 4.086.506 7.237 0a30.654 30.654 0 0 0 6.362-1.945.66.66 0 0 0-.39-1.167ZM2.113 8.09A112.657 112.657 0 0 1 19.62 3.147c1.8-.4 3.627-.667 5.467-.798-.253 1.946-1.635 7.49 1.186 7.782a11.01 11.01 0 0 0 7.179-3.055c.661 2.977.311 1.615 1.556 6.148a.584.584 0 0 0 1.109-.33 59.996 59.996 0 0 1-1.245-6.79c-.214-1.498-7.276-6.167-10.31-5.836-9.008.778-16.887 4.357-22.976 6.633a.649.649 0 1 0 .526 1.187Zm30.464-2.18c-.817 1.148-4.24 1.946-5.836 1.946a30.613 30.613 0 0 1-.33-5.272 27.681 27.681 0 0 1 6.166 3.326Z" clip-rule="evenodd"/>
  <path fill="#618883" fill-rule="evenodd" d="M43.764 34.449c-1.11 0 .175 1.614-1.77 5.194l-5.7-2.237c-.526-.195-.234-.253-6.4 3.793a49.186 49.186 0 0 0-2.082-5.233c-.798-1.09-3.56-.175-7.47.545 2.8-4.124 3.287-4.728 2.47-5.486-.817-.759-5.097-3.405-5.544-4.085a47.302 47.302 0 0 1 2.198-.954c2.412-.953 2.704-.72 2.88-1.42.174-.7-.429-3.89-.293-5.058.234 0-.214-.136 3.074.584a.647.647 0 0 0 .156-1.284c-.992-.136-3.658-1.4-4.358-.33a16.75 16.75 0 0 0-.156 5.33c-1.47.435-2.913.96-4.318 1.575-.584.292-1.265.39-1.44 1.09-.175.7.545 1.478 1.167 1.945.623.467 3.366 2.607 4.61 3.54a57.324 57.324 0 0 0-3.442 5.117 1.186 1.186 0 0 0 .408 1.537 3.89 3.89 0 0 0 2.801 0c1.187-.214 4.32-.934 5.837-1.05 1.556 3.112 1.945 7.003 3.735 5.835l6.108-4.396 5.836 2.043a.68.68 0 0 0 .817-.273 11.206 11.206 0 0 0 1.498-5.836.565.565 0 0 0-.622-.486ZM19.835 10.151a.647.647 0 0 0-.272-1.264 33.441 33.441 0 0 0-11.4 4.338.572.572 0 1 0 .35 1.09c6.264-1.324 8.365-3.27 11.322-4.164Zm-7.179 9.416a12.257 12.257 0 0 0 4.377-1.206 9.922 9.922 0 0 1 2.976-1.245.66.66 0 0 0 0-1.304 7.414 7.414 0 0 0-2.568.234 15.356 15.356 0 0 0-3.307 1.167c.486-.175-3.132 1.323-3.21 1.479-.428 1.011.681 1.07 1.732.875Z" clip-rule="evenodd"/>
</svg>
